<?xml version="1.0" encoding="UTF-8"?>
<!DOCTYPE svg PUBLIC "-//W3C//DTD SVG 1.1//EN" "http://www.w3.org/Graphics/SVG/1.1/DTD/svg11.dtd">
<svg version="1.1" xmlns="http://www.w3.org/2000/svg" xmlns:xlink="http://www.w3.org/1999/xlink" x="0" y="0" width="600" height="400" viewBox="0, 0, 600, 400">
  <g id="Layer_1">
    <path d="M282,29.5 L282,31.5 C179.249,31.5 96,104.955 96,195.5 L94,195.5 C94,103.791 178.196,29.5 282,29.5 z" fill="#000000"/>
    <path d="M463.794,60.923 L464.396,62.831 C446.928,68.345 430.899,76.631 418.983,87.041 C404.867,99.374 397.024,114.15 396.833,131.175 L394.833,131.152 C395.031,113.513 403.148,98.219 417.667,85.535 C429.811,74.925 446.081,66.515 463.794,60.923 z" fill="#000000"/>
    <path d="M511.992,54 L512.008,56 C498.716,56.11 486.492,57.369 475.016,59.968 L474.574,58.018 C486.199,55.384 498.564,54.111 511.992,54 z" fill="#000000"/>
    <path d="M-74,-139.5 L-74,-139.5" fill-opacity="0" stroke="#000000" stroke-width="10"/>
    <path d="M-74,-139.5 L-74,-139.5" fill-opacity="0" stroke="#000000" stroke-width="10"/>
    <path d="M549.999,35.996 C550.058,49.498 546.945,61.893 540.49,75.135 L538.692,74.258 C545.019,61.28 548.057,49.184 547.999,36.004 L549.999,35.996 z" fill="#000000"/>
    <path d="M529.875,87.854 L531.438,89.102 C514.967,109.738 489.921,121.663 463.012,122 L462.987,120 C489.303,119.671 513.783,108.015 529.875,87.854 z" fill="#000000"/>
    <path d="M96,181.5 C96,252.812 133.275,310.5 179,310.5 L179,312.5 C131.941,312.5 94,253.782 94,181.5 L96,181.5 z" fill="#000000"/>
    <path d="M-74,-139.5 L-74,-139.5" fill-opacity="0" stroke="#000000" stroke-width="10"/>
    <path d="M547.002,35.933 L548.998,36.067 C548.716,40.248 546.108,43.759 541.689,46.763 C538.524,48.914 534.97,50.536 530.011,52.37 C523.739,54.744 517.302,56.354 507.813,58.163 L507.438,56.198 C516.823,54.41 523.162,52.824 529.31,50.497 C540.412,46.39 546.581,42.197 547.002,35.933 z" fill="#000000"/>
    <path d="M468.189,59.91 L468.247,61.91 C466.901,61.949 465.677,61.967 463.503,61.986 C463.309,61.988 463.309,61.988 463.115,61.99 C462.562,61.995 462.317,61.997 462.01,62 L461.99,60 C462.298,59.997 462.544,59.995 463.098,59.99 C463.291,59.988 463.291,59.988 463.485,59.986 C465.647,59.967 466.86,59.949 468.189,59.91 z" fill="#000000"/>
    <path d="M56.021,130.796 L57.979,131.203 C54.3,148.909 58.298,164.983 68.245,177.051 C77.248,187.974 90.407,194.5 103,194.5 L103,196.5 C89.795,196.5 76.076,189.697 66.701,178.323 C56.369,165.789 52.218,149.097 56.021,130.796 z" fill="#000000"/>
    <path d="M-74,-139.5 L-74,-139.5" fill-opacity="0" stroke="#000000" stroke-width="10"/>
    <path d="M71.985,107.298 C77.597,107.771 81.411,111.754 84.791,115.888 L83.209,117.111 C76.002,107.785 69.964,107.246 64.883,113.149 C60.989,117.673 58,126.254 58,131 L56,131 C56,125.789 59.151,116.743 63.367,111.844 C64.999,109.993 66.947,108.347 69.371,107.649 C70.216,107.405 71.114,107.415 71.985,107.298 z" fill="#000000"/>
    <path d="M84.972,116.266 C87.369,126.212 85.734,134.893 78.72,139.104 C72.634,142.758 65.727,143.197 54.754,141.867 L54.994,139.882 C65.552,141.161 72.102,140.745 77.691,137.389 C83.772,133.738 85.244,125.929 83.028,116.734 L84.972,116.266 z" fill="#000000"/>
    <path d="M45.213,138.055 L47.226,138.506 L46.789,140.458 L44.776,140.007 L45.213,138.055 z" fill="#000000"/>
    <path d="M55.848,142.989 L56.835,143.306 L56.223,145.21 L55.236,144.893 L55.848,142.989 z" fill="#000000"/>
    <path d="M33.008,86.025 C36.74,86.303 35.142,85.973 37.853,86.742 L37.192,88.629 C29.581,85.964 24.705,92.496 24.368,102.251 C24.231,106.22 24.846,110.336 26.138,114.386 C28.444,121.615 32.796,128.2 38.597,133.299 C40.712,135.158 43.024,136.834 45.499,138.306 L44.476,140.025 C41.897,138.49 39.484,136.742 37.277,134.801 C31.206,129.464 26.65,122.572 24.232,114.994 C22.873,110.732 22.224,106.389 22.369,102.182 C22.703,96.505 24.278,89.125 30.223,86.688 C31.106,86.326 32.08,86.246 33.008,86.025 z" fill="#000000"/>
    <path d="M44.167,137.116 C44.167,137.673 45.517,138.576 48.027,139.286 C50.851,140.084 54.708,140.545 58.833,140.545 L58.833,142.545 C49.573,142.545 42.167,140.451 42.167,137.116 L44.167,137.116 z" fill="#000000"/>
    <path d="M547.833,35.095 L548.207,35.228 C548.68,35.512 548.834,36.126 548.55,36.6 C543.402,45.18 536.189,50.375 526.616,53.152 C519.408,55.244 513.015,55.811 498.81,56.199 C498.667,56.203 498.667,56.203 498.525,56.207 C483.235,56.625 476.674,57.257 469.342,59.701 C429.739,72.902 402.274,97.78 397.347,129.572 C397.263,130.118 396.752,130.491 396.206,130.407 C395.66,130.322 395.286,129.811 395.371,129.265 C400.431,96.612 428.466,71.218 468.709,57.803 C476.296,55.274 482.977,54.631 498.47,54.208 L498.755,54.2 C512.787,53.816 519.072,53.259 526.059,51.231 C535.168,48.589 541.959,43.697 546.835,35.571 C547.272,35.092 546.974,35.309 547.833,35.095 z" fill="#000000"/>
    <path d="M548.537,37.589 C549.089,37.594 549.532,38.047 549.526,38.599 C549.286,61.369 538.991,82.402 521.579,98.084 C505.117,112.909 483.652,121.589 463.193,121.589 C462.64,121.589 462.193,121.141 462.193,120.589 C462.193,120.036 462.64,119.589 463.193,119.589 C483.145,119.589 504.137,111.1 520.24,96.598 C537.252,81.277 547.292,60.765 547.526,38.578 C547.532,38.026 547.984,37.583 548.537,37.589 z" fill="#000000"/>
    <path d="M36.431,85.593 C37.279,85.846 36.991,85.615 37.406,86.113 C37.668,86.599 37.487,87.206 37.001,87.468 C23.033,95.013 20.407,106.936 27.614,119.188 C33.877,129.496 44.209,136.634 56.065,138.663 C56.176,137.754 56.181,136.836 56.193,135.922 C56.193,129.766 57.094,123.326 59.016,118.275 C61.589,111.518 65.821,107.589 71.859,107.589 C84.553,107.589 93.094,131.856 81.747,139.421 C78.375,141.669 74.512,142.227 69.042,141.789 C68.017,141.707 67.127,141.613 65.422,141.418 C62.078,141.036 60.799,140.922 59.193,140.922 L57.836,140.862 C57.391,144.121 57.603,142.638 57.21,145.313 C56.926,147.229 56.773,148.317 56.631,149.505 C56.087,154.048 56.095,157.409 56.83,160.346 C58.082,165.355 73.489,184.618 78.307,187.027 C80.521,188.135 81.981,188.616 85.825,189.667 C87.725,190.187 88.759,190.5 89.923,190.942 C91.812,191.66 93.48,192.554 95.126,193.788 C95.568,194.12 95.657,194.747 95.326,195.189 C94.995,195.63 94.368,195.72 93.926,195.389 C92.437,194.271 90.933,193.466 89.212,192.812 C88.125,192.399 87.139,192.1 85.297,191.596 C81.33,190.512 79.781,190.001 77.412,188.816 C72.071,186.146 56.283,166.405 54.889,160.831 C54.084,157.609 54.074,154.031 54.645,149.267 C54.79,148.056 54.945,146.953 55.232,145.02 C55.617,142.396 55.409,143.853 55.847,140.646 C43.236,138.846 32.619,130.799 25.89,120.202 C18.132,107.013 21.039,93.817 36.051,85.709 L36.431,85.593 z M71.859,109.589 C62.605,109.589 58.193,121.179 58.193,135.922 C58.192,136.906 58.157,137.892 58.053,138.87 L59.193,138.922 C60.903,138.922 62.225,139.039 65.65,139.431 C67.333,139.624 68.206,139.715 69.202,139.795 C74.265,140.201 77.72,139.702 80.638,137.756 C85.26,134.675 86.319,128.114 83.876,121.172 C81.516,114.468 76.604,109.589 71.859,109.589 z" fill="#000000"/>
    <path d="M143.067,83.596 C143.922,83.824 143.628,83.602 144.058,84.087 C144.335,84.565 144.172,85.176 143.694,85.453 C129.25,93.832 117.05,111.206 108.264,134.096 C100.612,154.032 96.193,176.842 96.193,194.589 C96.193,195.141 95.745,195.589 95.193,195.589 C94.64,195.589 94.193,195.141 94.193,194.589 C94.193,176.591 98.659,153.539 106.397,133.379 C115.332,110.102 127.782,92.371 142.691,83.724 L143.067,83.596 z" fill="#000000"/>
    <path d="M252.997,29.608 C253.538,29.5 254.065,29.851 254.173,30.392 C254.282,30.934 253.93,31.461 253.389,31.569 C209.575,40.332 169.133,59.625 143.248,86.614 C142.865,87.013 142.232,87.026 141.834,86.644 C141.435,86.261 141.422,85.628 141.804,85.23 C168.005,57.913 208.812,38.445 252.997,29.608 z" fill="#000000"/>
    <path d="M282.997,29.608 C283.538,29.5 284.065,29.851 284.173,30.392 C284.282,30.934 283.93,31.461 283.389,31.569 C279.807,32.285 276.876,32.289 270.228,31.878 C270.015,31.865 270.015,31.865 269.803,31.852 C262.345,31.392 258.784,31.531 254.848,32.869 C254.325,33.046 253.757,32.767 253.579,32.244 C253.402,31.721 253.681,31.153 254.204,30.975 C258.467,29.526 262.213,29.381 269.926,29.855 C270.138,29.869 270.138,29.869 270.351,29.882 C276.825,30.282 279.643,30.279 282.997,29.608 z" fill="#000000"/>
    <path d="M565.102,76.312 L565.569,76.328 L565.9,76.548 C566.29,76.939 566.29,77.572 565.9,77.962 C565.509,78.353 564.876,78.353 564.486,77.962 C564.095,77.572 564.095,76.939 564.486,76.548 C564.854,76.297 564.649,76.378 565.102,76.312 z" fill="#000000"/>
    <path d="M565.102,74.312 L565.569,74.328 L565.9,74.548 C566.29,74.939 566.29,75.572 565.9,75.962 C565.509,76.353 564.876,76.353 564.486,75.962 C564.095,75.572 564.095,74.939 564.486,74.548 C564.854,74.297 564.649,74.378 565.102,74.312 z" fill="#000000"/>
    <path d="M582.526,56.922 C583.078,56.922 583.526,57.37 583.526,57.922 C583.526,65.616 580.613,70.76 575.06,73.947 C570.823,76.379 565.883,77.497 557.159,78.52 C556.473,78.601 556.181,78.634 554.614,78.812 C543.598,80.062 539.171,81.108 535.85,84.008 C535.434,84.372 534.803,84.329 534.439,83.913 C534.076,83.497 534.119,82.865 534.535,82.502 C538.295,79.218 542.912,78.127 554.389,76.825 C555.953,76.647 556.244,76.614 556.926,76.534 C565.389,75.541 570.137,74.467 574.065,72.212 C578.989,69.386 581.526,64.907 581.526,57.922 C581.526,57.37 581.974,56.922 582.526,56.922 z" fill="#000000"/>
    <path d="M583.141,56.923 C583.977,57.213 583.7,56.97 584.092,57.485 C591.308,72.356 587.063,87.006 573.934,99.843 C563.104,110.433 546.625,119.095 531.435,122.892 C530.899,123.026 530.357,122.7 530.222,122.164 C530.089,121.629 530.414,121.086 530.95,120.952 C545.811,117.237 561.973,108.742 572.536,98.413 C585.102,86.127 589.089,72.364 582.293,58.358 C582.052,57.862 582.259,57.263 582.756,57.022 L583.141,56.923 z" fill="#000000"/>
    <path d="M570.013,73.6 C570.772,74.056 570.551,73.761 570.83,74.346 C570.964,74.882 570.638,75.425 570.102,75.559 C567.424,76.228 564.679,76.721 560.912,77.261 C560.105,77.377 559.533,77.457 557.98,77.67 C547.006,79.176 542.273,80.32 537.039,83.447 C536.565,83.73 535.951,83.576 535.667,83.101 C535.384,82.627 535.539,82.013 536.013,81.73 C541.556,78.419 546.47,77.231 557.708,75.688 C559.257,75.476 559.827,75.397 560.629,75.282 C564.333,74.751 567.018,74.268 569.617,73.618 L570.013,73.6 z" fill="#000000"/>
    <path d="M582.722,58.941 C583.264,59.05 583.615,59.576 583.507,60.118 C582.235,66.478 577.926,70.831 570.381,75.442 C569.91,75.73 569.294,75.581 569.006,75.11 C568.718,74.639 568.867,74.023 569.338,73.735 C576.445,69.392 580.414,65.382 581.545,59.726 C581.654,59.184 582.181,58.833 582.722,58.941 z" fill="#000000"/>
    <path d="M570.951,98.951 C571.827,99.076 571.509,98.891 571.993,99.322 C572.324,99.764 572.235,100.391 571.793,100.722 C571.683,100.804 570.405,101.763 570.029,102.045 C569.356,102.55 568.801,102.964 568.269,103.362 C553.938,114.051 544.898,119.258 532.133,122.884 C531.601,123.035 531.048,122.726 530.897,122.195 C530.747,121.664 531.055,121.111 531.586,120.96 C544.065,117.416 552.921,112.314 567.073,101.758 C567.604,101.362 568.157,100.948 568.83,100.444 C569.205,100.163 570.483,99.204 570.593,99.122 L570.951,98.951 z" fill="#000000"/>
    <path d="M581.878,59.588 C582.692,59.937 582.433,59.675 582.788,60.217 C589.003,75.754 585.241,87.759 571.868,99.993 C571.46,100.366 570.828,100.338 570.455,99.93 C570.082,99.523 570.11,98.89 570.518,98.517 C583.317,86.808 586.811,75.659 580.931,60.96 C580.726,60.447 580.975,59.865 581.488,59.66 L581.878,59.588 z" fill="#000000"/>
    <path d="M476.002,158.735 C480.684,158.621 484.701,160.346 488.124,163.46 C488.514,163.85 488.514,164.483 488.124,164.874 C487.733,165.264 487.1,165.264 486.71,164.874 C475.943,154.108 454.765,166.035 458.39,181.269 C458.517,181.806 458.186,182.345 457.648,182.473 C457.111,182.601 456.572,182.269 456.444,181.731 C453.918,168.814 463.98,159.987 476.002,158.735 z" fill="#000000"/>
    <path d="M653.455,188.029 L653.688,188.037 L653.854,188.146 C654.049,188.342 654.049,188.658 653.854,188.854 C653.658,189.049 653.342,189.049 653.146,188.854 C652.951,188.658 652.951,188.342 653.146,188.146 C653.331,188.021 653.228,188.062 653.455,188.029 z" fill="#000000"/>
    <path d="M549.833,180.535 L551.447,180.668 C551.915,180.74 552.268,181.101 552.309,181.579 C563.039,188.445 564.534,203.841 564.386,215.373 C563.832,231.7 557.713,244.597 547.575,247.131 C526.745,252.339 515.564,238.001 517.951,216.392 C520.279,198.554 530.246,180.864 549.833,180.535 z M549.727,182.533 C531.437,182.418 522.256,200.729 519.939,216.612 C517.687,236.995 527.833,250.005 547.089,245.191 C556.124,242.933 561.86,230.843 562.387,215.305 C562.897,200.288 558.307,186.767 550.885,183.056 C550.512,182.765 550.614,182.937 550.5,182.596 L549.727,182.533 z" fill="#000000"/>
    <path d="M525.236,116.266 C526.086,116.511 525.797,116.283 526.216,116.777 C535.463,133.529 541.841,156.483 541.841,174.76 C541.841,175.313 541.393,175.76 540.841,175.76 C540.288,175.76 539.841,175.313 539.841,174.76 C539.841,156.835 533.555,134.21 524.465,117.744 C524.198,117.26 524.374,116.652 524.857,116.385 L525.236,116.266 z" fill="#000000"/>
    <path d="M538.992,195.481 C539.748,195.941 539.528,195.645 539.804,196.232 C539.82,196.64 539.888,196.515 539.802,196.658 C543.02,202.861 541.744,214.153 540.845,220.599 C540.019,225.569 538.751,229.704 537.147,232.339 C535.17,235.588 532.555,236.652 529.777,234.801 C525.592,232.011 525.175,223.584 527.72,213.661 C530.136,204.24 534.473,196.504 538.595,195.497 L538.992,195.481 z M538.185,197.858 C533.203,201.624 531.307,208.425 529.657,214.157 C527.313,223.297 527.695,231.009 530.887,233.137 C532.57,234.259 533.989,233.681 535.439,231.299 C536.884,228.924 538.084,225.011 538.872,220.271 C539.72,215.241 539.974,210.126 539.705,205.034 C539.583,202.723 539.331,199.933 538.185,197.858 z" fill="#000000"/>
    <path d="M552.789,196.208 C553.533,196.687 553.321,196.385 553.58,196.979 L553.583,197.132 C554.134,197.489 553.953,197.257 554.181,197.781 C554.824,200.783 554.539,211.283 553.39,219.329 C552.68,224.299 551.683,228.379 550.389,231.203 C548.766,234.746 546.581,236.437 543.887,235.539 C541.273,234.668 541.315,226.044 543.154,215.858 C545.126,204.937 548.368,197.085 552.391,196.213 L552.789,196.208 z M552.256,198.383 C547.681,202.113 546.215,210.817 545.123,216.213 C543.556,224.893 543.514,233.307 544.519,233.642 C545.988,234.132 547.319,233.101 548.571,230.37 C549.768,227.755 550.725,223.842 551.41,219.046 C552.114,214.038 552.437,208.981 552.518,203.926 C552.547,202.157 552.553,200.169 552.256,198.383 z" fill="#000000"/>
    <path d="M259.665,237.514 C260.529,237.704 260.226,237.495 260.676,237.961 C265.357,245.284 268.635,260.001 269.001,274.854 C269.404,291.171 266.334,304.747 259.874,311.207 C258.653,312.428 255.645,315.14 249.824,320.309 C249.779,320.349 249.779,320.349 249.733,320.389 C242.372,326.926 239.414,329.575 239.394,329.614 C238.272,331.859 241.529,339.839 247.603,350.34 C252.367,358.577 258.665,367.918 260.54,369.793 C260.931,370.183 260.931,370.817 260.54,371.207 C260.15,371.598 259.517,371.598 259.126,371.207 C257.089,369.17 250.72,359.725 245.872,351.341 C239.301,339.981 236.008,331.914 237.605,328.719 C237.769,328.392 238.493,327.724 241.219,325.284 C242.112,324.484 243.163,323.548 244.576,322.293 C245.251,321.694 247.839,319.397 248.405,318.894 C248.451,318.854 248.451,318.854 248.496,318.814 C254.266,313.69 257.282,310.971 258.459,309.793 C264.429,303.823 267.392,290.72 267.002,274.903 C266.643,260.383 263.44,245.998 258.991,239.039 C258.693,238.573 258.829,237.955 259.295,237.657 L259.665,237.514 z" fill="#000000"/>
    <path d="M259.75,370.837 C260.3,370.791 260.784,371.199 260.83,371.75 C260.876,372.3 260.467,372.784 259.917,372.83 C258.467,372.951 255.899,373.358 251.565,374.132 C250.316,374.356 241.247,376.011 238.335,376.527 C236.011,376.94 233.88,377.308 231.845,377.647 C215.843,380.311 206.165,381.117 202.719,379.394 C202.064,379.067 201.655,378.691 201.132,378.049 C201.072,377.975 201.072,377.975 201.015,377.905 C200.322,377.05 199.929,376.833 198.5,376.833 C197.948,376.833 197.5,376.386 197.5,375.833 C197.5,375.281 197.948,374.833 198.5,374.833 C200.58,374.833 201.52,375.351 202.569,376.646 C202.627,376.717 202.627,376.717 202.682,376.785 C203.042,377.227 203.263,377.43 203.614,377.605 C206.472,379.035 216.194,378.225 231.516,375.674 C233.544,375.336 235.668,374.969 237.986,374.558 C240.892,374.043 249.959,372.388 251.214,372.164 C255.615,371.377 258.214,370.966 259.75,370.837 z" fill="#000000"/>
    <path d="M197.304,344.176 C198.071,344.618 197.844,344.328 198.133,344.908 C198.158,345.003 199.071,348.372 199.348,349.424 C200.375,353.319 201.053,356.364 201.493,359.353 C202.433,365.721 202.09,370.889 200.061,374.947 C199.814,375.441 199.213,375.641 198.719,375.394 C198.225,375.147 198.025,374.547 198.272,374.053 C200.082,370.433 200.4,365.645 199.515,359.645 C199.087,356.743 198.423,353.763 197.414,349.933 C197.14,348.89 196.228,345.527 196.201,345.425 C196.058,344.892 196.374,344.344 196.908,344.201 L197.304,344.176 z" fill="#000000"/>
    <path d="M241.987,342.845 C242.746,343.3 242.525,343.006 242.803,343.591 C242.937,344.127 242.612,344.67 242.076,344.803 C231.075,347.554 214.334,347.219 199.672,344.82 C199.127,344.731 198.757,344.217 198.846,343.672 C198.936,343.127 199.45,342.757 199.995,342.846 C214.411,345.205 230.904,345.535 241.591,342.863 L241.987,342.845 z" fill="#000000"/>
    <path d="M203.679,312.178 L204.076,312.197 C204.612,312.33 204.937,312.873 204.803,313.409 C204.351,315.217 204.001,316.752 203.274,320.033 C203.215,320.298 203.215,320.298 203.157,320.563 C200.508,332.523 198.827,337.741 195.299,342.434 C194.968,342.876 194.341,342.965 193.899,342.633 C193.458,342.301 193.369,341.674 193.701,341.232 C196.99,336.857 198.621,331.792 201.204,320.131 C201.263,319.866 201.263,319.866 201.321,319.6 C202.052,316.302 202.405,314.756 202.863,312.924 C203.142,312.339 202.92,312.634 203.679,312.178 z" fill="#000000"/>
    <path d="M166.045,254.856 L166.408,255.015 C166.86,255.333 166.969,255.957 166.651,256.409 C159.529,266.537 169.7,301.982 180.947,307.605 C183.722,308.993 186.923,309.714 191.915,310.297 C192.637,310.381 193.059,310.427 194.574,310.589 C197.953,310.95 199.559,311.159 201.363,311.519 C201.904,311.628 202.256,312.155 202.147,312.696 C202.039,313.238 201.512,313.589 200.97,313.48 C199.246,313.136 197.68,312.932 194.361,312.577 C192.839,312.415 192.414,312.368 191.683,312.283 C186.477,311.676 183.088,310.912 180.053,309.394 C167.738,303.237 157.171,266.413 165.015,255.258 C165.486,254.812 165.173,255.008 166.045,254.856 z" fill="#000000"/>
    <path d="M454.408,329.504 C455.255,329.76 454.968,329.528 455.381,330.027 C455.642,330.514 455.459,331.12 454.973,331.381 C450.975,333.525 446.714,335.716 441.821,338.158 C437.706,340.211 421.468,348.134 417.614,350.061 C417.12,350.308 416.519,350.108 416.272,349.614 C416.025,349.12 416.225,348.519 416.719,348.272 C420.585,346.34 436.824,338.416 440.928,336.368 C445.805,333.935 450.049,331.752 454.027,329.619 L454.408,329.504 z" fill="#000000"/>
    <path d="M416.462,348.167 C417.015,348.147 417.479,348.577 417.499,349.129 C417.533,350.026 417.572,350.987 417.622,352.163 C417.642,352.622 417.662,353.092 417.69,353.738 C417.725,354.537 417.744,354.961 417.761,355.345 C417.934,359.324 418.028,361.819 418.094,364.451 C418.142,366.364 418.167,368.143 418.167,369.833 C418.167,370.386 417.719,370.833 417.167,370.833 C416.614,370.833 416.167,370.386 416.167,369.833 C416.167,368.161 416.142,366.398 416.095,364.501 C416.029,361.885 415.935,359.4 415.763,355.432 C415.746,355.048 415.727,354.624 415.692,353.825 C415.664,353.179 415.644,352.708 415.624,352.249 C415.574,351.069 415.534,350.105 415.501,349.204 C415.48,348.652 415.911,348.188 416.463,348.167 z" fill="#000000"/>
    <path d="M468.259,354.196 C469.135,354.321 468.816,354.135 469.3,354.567 C469.631,355.008 469.542,355.635 469.1,355.967 C459.139,363.437 436.854,369.059 417.257,370.829 C416.707,370.879 416.22,370.473 416.171,369.923 C416.121,369.373 416.527,368.887 417.077,368.837 C436.327,367.098 458.323,361.55 467.9,354.367 L468.259,354.196 z" fill="#000000"/>
    <path d="M454.41,328.224 L454.876,328.24 L455.207,328.46 C462.37,335.622 467.041,344.293 469.475,354.944 C469.598,355.482 469.261,356.019 468.723,356.142 C468.184,356.265 467.648,355.928 467.525,355.389 C465.174,345.098 460.684,336.765 453.793,329.874 C453.402,329.483 453.402,328.85 453.793,328.46 C454.161,328.209 453.957,328.29 454.41,328.224 z" fill="#000000"/>
    <path d="M436.654,298.178 C437.413,298.634 437.192,298.339 437.47,298.924 C439.065,305.302 439.799,307.952 441.194,311.771 C444.615,321.137 448.992,326.97 454.708,328.189 C455.249,328.304 455.593,328.835 455.478,329.375 C455.363,329.915 454.832,330.26 454.292,330.145 C447.699,328.74 442.952,322.413 439.315,312.457 C437.888,308.549 437.142,305.857 435.53,299.409 C435.396,298.873 435.722,298.33 436.257,298.197 L436.654,298.178 z" fill="#000000"/>
    <path d="M440.955,245.522 C441.827,245.674 441.514,245.479 441.985,245.925 C442.302,246.376 442.194,247 441.742,247.318 C434.339,252.526 431.989,262.591 433.476,276.729 C434.025,281.947 435.045,287.391 436.567,293.853 C437.009,295.729 437.331,297.032 438.137,300.257 C438.271,300.793 437.945,301.336 437.409,301.47 C436.873,301.604 436.331,301.278 436.197,300.742 C435.388,297.509 435.066,296.2 434.621,294.311 C433.08,287.774 432.046,282.253 431.487,276.938 C429.932,262.152 432.438,251.418 440.591,245.682 L440.955,245.522 z" fill="#000000"/>
    <path d="M371.783,261.501 L372.175,261.56 C372.694,261.749 372.962,262.323 372.773,262.842 C357.938,303.611 365.763,326.666 403.363,334.186 C403.904,334.294 404.256,334.821 404.147,335.363 C404.039,335.904 403.512,336.256 402.97,336.147 C363.968,328.347 355.687,303.948 370.893,262.158 C371.231,261.605 370.981,261.875 371.783,261.501 z" fill="#000000"/>
    <path d="M395.987,318.178 C396.746,318.634 396.525,318.339 396.803,318.924 C399.403,329.323 409.868,342.612 418.982,347.624 C419.466,347.89 419.642,348.498 419.376,348.982 C419.11,349.466 418.502,349.642 418.018,349.376 C408.423,344.1 397.6,330.356 394.863,319.409 C394.729,318.873 395.055,318.33 395.591,318.197 L395.987,318.178 z" fill="#000000"/>
    <path d="M317.167,318.167 C317.719,318.167 318.167,318.614 318.167,319.167 C318.167,319.719 317.719,320.167 317.167,320.167 C311.084,320.167 306.205,320.256 295.16,320.526 C293.091,320.577 292.154,320.6 290.995,320.627 C272.916,321.053 262.34,321.002 251.092,320.164 C250.542,320.123 250.128,319.643 250.169,319.092 C250.21,318.542 250.69,318.128 251.241,318.169 C262.406,319.002 272.93,319.053 290.948,318.628 C292.106,318.6 293.043,318.578 295.111,318.527 C306.173,318.257 311.062,318.167 317.167,318.167 z" fill="#000000"/>
    <path d="M176.696,244.409 L177.082,244.501 C177.584,244.732 177.803,245.326 177.572,245.827 C176.536,248.078 174.895,249.277 171.104,251.175 C171.145,251.155 170.468,251.493 170.282,251.587 C166.829,253.323 165.224,254.525 164.225,256.523 C159.676,265.621 161.151,279.585 167.883,291.376 C175.281,304.333 187.486,312.409 201.997,312.409 C202.55,312.409 202.997,312.857 202.997,313.409 C202.997,313.961 202.55,314.409 201.997,314.409 C186.719,314.409 173.881,305.914 166.147,292.368 C159.107,280.038 157.559,265.384 162.436,255.628 C163.687,253.126 165.566,251.72 169.383,249.8 C169.572,249.705 170.251,249.365 170.208,249.387 C173.597,247.69 174.977,246.682 175.756,244.99 C176.138,244.467 175.866,244.716 176.696,244.409 z" fill="#000000"/>
    <path d="M202.838,305.091 C203.588,305.561 203.372,305.262 203.639,305.853 C206.759,319.51 202.541,334.279 193.371,343.449 C192.981,343.84 192.347,343.84 191.957,343.449 C191.566,343.059 191.566,342.426 191.957,342.035 C200.639,333.353 204.656,319.287 201.689,306.298 C201.566,305.76 201.903,305.224 202.441,305.101 L202.838,305.091 z" fill="#000000"/>
    <path d="M258.584,235.078 C259.428,235.345 259.145,235.11 259.551,235.614 C278.053,271.209 269.764,306.667 239.264,329.542 C238.822,329.874 238.195,329.784 237.864,329.342 C237.533,328.9 237.622,328.274 238.064,327.942 C267.785,305.652 275.825,271.259 257.777,236.537 C257.522,236.047 257.713,235.443 258.203,235.188 L258.584,235.078 z" fill="#000000"/>
    <path d="M199.997,343.076 L199.997,345.076 C199.445,345.076 198.997,344.628 198.997,344.076 C198.997,343.523 199.445,343.076 199.997,343.076 z" fill="#000000"/>
    <path d="M192.458,339.763 C193.329,339.92 193.018,339.723 193.485,340.172 C203.086,353.992 204.725,365.949 198.926,380.447 C198.721,380.96 198.139,381.209 197.626,381.004 C197.113,380.799 196.864,380.217 197.069,379.704 C202.612,365.847 201.069,354.594 191.843,341.313 C191.528,340.859 191.64,340.236 192.094,339.921 L192.458,339.763 z" fill="#000000"/>
    <path d="M261.857,369.085 C262.716,369.3 262.418,369.082 262.855,369.561 C263.139,370.035 262.985,370.649 262.512,370.933 C254.277,375.874 245.514,377.271 225.673,378.255 C225.306,378.273 225.306,378.273 224.938,378.291 C211.652,378.949 205.939,379.483 199.569,381.047 C199.033,381.178 198.491,380.85 198.359,380.314 C198.228,379.777 198.556,379.236 199.092,379.104 C205.632,377.499 211.42,376.958 224.839,376.294 C225.207,376.276 225.207,376.276 225.574,376.258 C245.066,375.291 253.64,373.924 261.483,369.218 L261.857,369.085 z" fill="#000000"/>
    <path d="M237.385,329.743 C238.185,330.12 237.936,329.849 238.271,330.403 C243.66,345.355 252.555,359.885 262.038,369.368 C262.428,369.759 262.428,370.392 262.038,370.783 C261.647,371.173 261.014,371.173 260.624,370.783 C250.924,361.083 241.874,346.3 236.39,331.081 C236.203,330.562 236.472,329.989 236.992,329.801 L237.385,329.743 z" fill="#000000"/>
    <path d="M193.986,339.742 L194.376,339.817 C207.198,345.064 227.567,345.971 239.626,341.147 C240.139,340.942 240.721,341.191 240.926,341.704 C241.131,342.217 240.882,342.799 240.369,343.004 C227.798,348.032 206.897,347.102 193.619,341.668 C193.108,341.459 192.863,340.875 193.072,340.363 C193.431,339.824 193.17,340.084 193.986,339.742 z" fill="#000000"/>
    <path d="M257.789,236.43 C258.661,236.586 258.349,236.389 258.818,236.837 C269.601,252.295 272.312,270.45 267.465,288.527 C262.981,305.249 252.219,320.826 237.931,331.542 C237.489,331.874 236.862,331.784 236.531,331.342 C236.199,330.9 236.289,330.274 236.731,329.942 C250.666,319.491 261.167,304.292 265.533,288.009 C270.232,270.486 267.612,252.939 257.177,237.981 C256.861,237.528 256.972,236.905 257.425,236.589 L257.789,236.43 z" fill="#000000"/>
    <path d="M371.37,261.076 L371.756,261.171 C372.256,261.405 372.471,262.001 372.236,262.501 C362.891,282.381 362.482,301.385 372.188,317.561 C372.472,318.035 372.319,318.649 371.845,318.933 C371.372,319.217 370.757,319.064 370.473,318.59 C360.393,301.79 360.816,282.092 370.426,261.65 C370.812,261.13 370.538,261.376 371.37,261.076 z" fill="#000000"/>
    <path d="M368.51,264.421 L368.907,264.439 C369.442,264.573 369.768,265.116 369.634,265.651 C365.706,281.366 365.765,298.175 370.331,310.818 C375.614,325.448 386.396,333.735 402.664,333.742 C403.217,333.742 403.664,334.19 403.664,334.743 C403.664,335.295 403.216,335.742 402.664,335.742 C385.516,335.735 374.008,326.89 368.45,311.497 C363.737,298.445 363.675,281.241 367.694,265.166 C367.972,264.581 367.751,264.876 368.51,264.421 z" fill="#000000"/>
    <path d="M440.524,246.418 C441.382,246.633 441.085,246.416 441.522,246.894 C441.806,247.368 441.652,247.982 441.179,248.266 C432.146,253.686 430.196,268.963 434.671,288.4 C438.664,305.743 447.151,322.842 454.61,328.618 C455.046,328.956 455.126,329.584 454.788,330.021 C454.45,330.458 453.822,330.538 453.385,330.199 C445.486,324.082 436.809,306.599 432.722,288.849 C428.071,268.649 430.124,252.567 440.15,246.551 L440.524,246.418 z" fill="#000000"/>
    <path d="M395.756,318.438 C396.632,318.563 396.314,318.378 396.797,318.809 C398.591,321.2 399.942,323.444 402.438,327.956 C402.619,328.284 402.619,328.284 402.801,328.612 C402.982,328.939 403.056,329.073 403.163,329.267 C408.541,338.967 412.071,343.352 418.442,346.513 C418.937,346.759 419.139,347.359 418.893,347.853 C418.648,348.348 418.048,348.55 417.553,348.305 C410.712,344.91 406.977,340.269 401.414,330.236 C401.306,330.042 401.232,329.908 401.051,329.579 C400.869,329.252 400.869,329.252 400.688,328.924 C398.235,324.491 396.919,322.304 395.197,320.009 C394.866,319.567 394.956,318.94 395.397,318.609 L395.756,318.438 z" fill="#000000"/>
    <path d="M452.573,329.133 L453.04,329.149 L453.371,329.368 C453.762,329.759 453.762,330.392 453.371,330.783 C450.017,334.137 446.251,335.741 437.444,338.345 C436.734,338.555 436.389,338.657 436.025,338.765 C425.943,341.763 421.323,344.165 418.182,349.266 C417.893,349.737 417.277,349.883 416.806,349.594 C416.336,349.304 416.19,348.688 416.479,348.218 C419.964,342.557 424.92,339.98 435.455,336.848 C435.821,336.739 436.167,336.637 436.877,336.427 C445.353,333.92 448.926,332.399 451.957,329.368 C452.325,329.118 452.121,329.199 452.573,329.133 z" fill="#000000"/>
    <path d="M416.563,347.081 C417.112,347.025 417.603,347.425 417.659,347.974 C417.82,349.55 418.008,350.82 418.49,353.774 C418.545,354.11 418.545,354.11 418.599,354.447 C419.69,361.167 419.892,364.618 418.967,368.318 C418.834,368.854 418.291,369.18 417.755,369.046 C417.219,368.912 416.893,368.369 417.027,367.833 C417.864,364.485 417.673,361.223 416.625,354.767 C416.571,354.432 416.571,354.432 416.516,354.096 C416.028,351.102 415.835,349.806 415.669,348.177 C415.613,347.628 416.013,347.137 416.563,347.081 z" fill="#000000"/>
    <path d="M467.395,354.411 L467.778,354.514 C468.272,354.761 468.472,355.362 468.225,355.856 C466.206,359.895 462.414,362.476 456.865,364.055 C452.714,365.236 448.64,365.745 440.305,366.377 C439.929,366.405 439.929,366.405 439.553,366.434 C427.135,367.373 422.108,368.242 417.864,370.921 C417.397,371.216 416.78,371.076 416.485,370.609 C416.19,370.142 416.33,369.525 416.797,369.23 C421.436,366.302 426.609,365.407 439.402,364.44 C439.778,364.411 439.778,364.411 440.153,364.383 C448.352,363.761 452.341,363.263 456.318,362.131 C461.375,360.692 464.704,358.426 466.436,354.962 C466.835,354.451 466.555,354.69 467.395,354.411 z" fill="#000000"/>
    <path d="M453.575,329.105 L453.933,329.277 C458.171,332.474 461.386,337.1 464.736,343.963 C465.619,345.77 468.651,352.451 469.346,353.866 C469.418,354.012 469.488,354.155 469.558,354.295 C469.806,354.789 469.605,355.39 469.111,355.637 C468.617,355.884 468.017,355.683 467.77,355.189 C467.697,355.045 467.625,354.898 467.551,354.748 C466.838,353.297 463.805,346.613 462.939,344.84 C459.716,338.237 456.659,333.838 452.729,330.874 C452.288,330.541 452.2,329.914 452.532,329.473 C453.017,329.044 452.698,329.228 453.575,329.105 z" fill="#000000"/>
    <path d="M94.5,189.089 C95.044,188.998 95.56,189.366 95.65,189.911 C95.804,190.834 96.531,195.22 96.7,196.241 C97.22,199.367 97.686,202.151 98.17,205.012 C99.475,212.716 100.728,219.871 101.969,226.621 C102.842,231.373 103.685,235.792 104.495,239.84 C107.136,253.041 109.333,261.844 110.892,264.962 C115.678,274.535 128.143,287.827 141.485,297.194 C157.044,308.116 171.529,312.427 181.582,307.833 C182.084,307.603 182.677,307.824 182.907,308.326 C183.136,308.829 182.915,309.422 182.413,309.652 C171.54,314.621 156.418,310.121 140.336,298.831 C126.741,289.287 114.053,275.755 109.103,265.856 C107.429,262.508 105.219,253.654 102.534,240.232 C101.722,236.173 100.877,231.745 100.002,226.983 C98.759,220.223 97.505,213.058 96.198,205.346 C95.713,202.483 95.247,199.697 94.727,196.569 C94.558,195.547 93.831,191.161 93.678,190.24 C93.587,189.695 93.955,189.18 94.5,189.089 z" fill="#000000"/>
    <path d="M534.093,245.08 C534.643,245.133 535.046,245.622 534.993,246.171 C533.691,259.669 526.897,270.856 515.335,280.107 C505.723,287.798 493.135,293.957 477.494,299.248 C467.414,302.657 462.137,304.071 442.24,309.046 C441.704,309.18 441.161,308.854 441.027,308.318 C440.893,307.782 441.219,307.239 441.755,307.105 C461.593,302.146 466.846,300.738 476.853,297.353 C510.886,285.841 530.684,270 533.002,245.979 C533.055,245.43 533.544,245.027 534.093,245.08 z" fill="#000000"/>
    <path d="M365.997,312.409 C366.55,312.409 366.997,312.857 366.997,313.409 C366.997,313.961 366.55,314.409 365.997,314.409 C359.17,314.409 353.726,315.128 340.315,317.436 C333.884,318.543 330.685,319.057 326.921,319.538 C320.578,320.35 315.122,320.661 309.948,320.408 C309.397,320.381 308.972,319.912 308.999,319.36 C309.026,318.808 309.495,318.383 310.046,318.41 C315.088,318.657 320.432,318.352 326.667,317.555 C330.393,317.078 333.573,316.568 339.976,315.465 C353.503,313.137 359.015,312.409 365.997,312.409 z" fill="#000000"/>
    <path d="M534.046,246.41 C534.598,246.437 535.023,246.906 534.996,247.457 C534.24,263.003 520.201,278.254 497.889,290.652 C478.706,301.311 455.516,308.409 440.664,308.409 C440.112,308.409 439.664,307.961 439.664,307.409 C439.664,306.857 440.112,306.409 440.664,306.409 C455.142,306.409 478.011,299.409 496.917,288.904 C518.686,276.808 532.285,262.035 532.998,247.36 C533.025,246.809 533.494,246.383 534.046,246.41 z" fill="#000000"/>
    <path d="M364.818,309.754 C365.577,310.209 365.356,309.914 365.634,310.5 C365.768,311.035 365.442,311.578 364.906,311.712 C322.098,322.414 291.025,324.75 247.882,319.736 C247.333,319.672 246.94,319.175 247.004,318.627 C247.068,318.078 247.564,317.685 248.113,317.749 C291.009,322.734 321.841,320.417 364.422,309.772 L364.818,309.754 z" fill="#000000"/>
    <path d="M514.362,104.771 L514.736,104.905 C528.981,113.53 535.371,128.16 539.02,152.72 C539.55,156.281 539.727,157.654 540.752,165.875 C541.735,173.749 542.341,177.944 543.199,182.231 C543.307,182.773 542.956,183.3 542.414,183.408 C541.873,183.516 541.346,183.165 541.237,182.623 C540.367,178.274 539.756,174.044 538.768,166.123 C537.745,157.921 537.568,156.553 537.042,153.014 C533.473,128.991 527.295,114.847 513.7,106.616 C513.228,106.33 513.077,105.715 513.363,105.243 C513.801,104.766 513.503,104.982 514.362,104.771 z" fill="#000000"/>
    <path d="M549.223,179.748 C549.688,179.717 550.117,179.979 550.261,180.434 C562.581,181.895 564.111,201.064 564.56,210.456 C565.055,227.265 560.697,241.785 552.98,244.357 C531.942,251.37 519.929,244.115 517.179,227.589 C515.053,214.819 519.462,197.897 525.443,193.91 C526.833,192.983 528.205,191.921 530.088,190.352 C530.381,190.108 530.683,189.854 531.08,189.52 C531.104,189.5 531.86,188.863 532.081,188.678 C539.036,182.829 543.161,180.406 549.223,179.748 z M549.075,181.792 C542.889,182.455 537.98,186.376 533.368,190.208 C533.148,190.393 532.393,191.03 532.368,191.05 C531.969,191.386 531.665,191.642 531.368,191.889 C529.435,193.499 528.014,194.6 526.552,195.574 C521.348,199.044 517.142,215.185 519.151,227.261 C521.7,242.576 532.477,249.084 552.348,242.46 C558.896,240.278 563.032,226.498 562.561,210.514 C562.084,194.325 557.108,182.409 549.997,182.409 C549.367,182.284 549.689,182.412 549.075,181.792 z" fill="#000000"/>
    <path d="M539.857,193.752 L540.465,193.904 C542.994,194.1 541.914,193.823 543.755,194.503 C544.255,194.737 544.471,195.333 544.236,195.833 C544.002,196.333 543.407,196.549 542.907,196.314 C541.907,195.963 542.345,196.015 541.622,196 C543.938,202.984 543.572,210.627 542.763,217.835 C541.163,228.949 536.774,235.467 529.755,233.712 C525.365,232.615 525.231,222.094 528.338,210.969 C530.154,205.347 532.758,196.227 539.169,194.232 C539.222,194.024 539.169,194.171 539.483,193.885 L539.857,193.752 z M539.604,196.249 C534.002,198.795 531.879,206.083 530.264,211.507 C527.485,221.459 527.608,231.114 530.24,231.772 C535.637,233.121 539.331,227.635 540.784,217.55 C541.544,210.518 541.959,203.041 539.604,196.249 z" fill="#000000"/>
    <path d="M553.258,196.411 C554.1,196.684 553.818,196.447 554.221,196.954 C554.359,197.447 554.369,197.21 554.222,197.666 L554.311,197.879 C555.041,201.526 555.031,212.399 553.966,220.056 C553.277,225.008 552.196,228.847 550.657,231.241 C548.698,234.289 545.924,235.007 542.776,232.908 C539.294,230.586 539.987,223.264 543.414,213.592 C546.303,205.44 550.482,197.741 552.876,196.518 L553.258,196.411 z M552.524,199.538 C549.311,203.995 547.225,209.148 545.299,214.26 C542.209,222.981 541.573,229.702 543.885,231.243 C546.067,232.698 547.598,232.301 548.975,230.159 C550.32,228.068 551.333,224.469 551.985,219.78 C552.747,213.084 553.195,206.264 552.524,199.538 z" fill="#000000"/>
    <path d="M481.24,158.657 C485.299,158.568 487.957,159.8 487.957,162.5 C487.957,163.052 487.51,163.5 486.957,163.5 C486.405,163.5 485.957,163.052 485.957,162.5 C485.957,161.328 484.363,160.589 481.285,160.657 C478,160.73 473.738,161.756 469.836,163.45 C460.445,167.528 456.058,173.677 459.817,179.988 C460.099,180.463 459.944,181.076 459.469,181.359 C458.995,181.642 458.381,181.486 458.098,181.011 C453.534,173.347 458.699,166.105 469.039,161.616 C473.167,159.823 477.682,158.736 481.24,158.657 z" fill="#000000"/>
    <path d="M306.464,24.916 C325.737,24.818 344.84,27.58 363.709,31.263 C394.937,37.66 427.68,48.564 455.082,61.167 C455.584,61.398 455.803,61.992 455.572,62.493 C455.342,62.995 454.748,63.215 454.246,62.984 C426.981,50.444 394.382,39.588 363.307,33.222 C327.199,25.826 294.858,24.724 269.573,31.046 C269.037,31.18 268.495,30.854 268.36,30.318 C268.227,29.782 268.552,29.239 269.088,29.105 C277.594,26.99 286.316,25.806 295.06,25.267 C298.856,25.033 302.663,25.033 306.464,24.916 z" fill="#000000"/>
    <path d="M300.275,22.587 C322.395,23.074 344.195,27.598 365.629,32.782 C397.178,40.53 433.164,52.237 457.694,61.811 C458.209,62.011 458.463,62.591 458.262,63.106 C458.061,63.62 457.482,63.875 456.967,63.674 C432.514,54.13 396.61,42.45 365.152,34.724 C321.556,24.017 289.165,21.276 273.778,28.97 C273.284,29.217 272.683,29.017 272.436,28.523 C272.189,28.029 272.389,27.428 272.883,27.181 C281.395,23.061 290.998,22.689 300.275,22.587 z" fill="#000000"/>
    <path d="M546.195,35.095 L546.561,35.249 C547.017,35.561 547.135,36.183 546.823,36.639 C540.81,45.453 531.829,50.703 519.785,53.356 C510.842,55.325 502.9,55.742 485.997,55.742 C485.445,55.742 484.997,55.294 484.997,54.742 C484.997,54.19 485.445,53.742 485.997,53.742 C502.753,53.742 510.602,53.33 519.355,51.402 C530.938,48.851 539.475,43.861 545.171,35.512 C545.635,35.059 545.325,35.259 546.195,35.095 z" fill="#000000"/>
    <path d="M494.667,53.075 C495.219,53.077 495.665,53.526 495.664,54.078 C495.663,54.63 495.214,55.077 494.661,55.075 C487.23,55.056 480.607,56.284 468.793,59.354 C468.338,59.473 466.11,60.054 465.492,60.214 C464.227,60.543 463.211,60.803 462.24,61.046 C461.704,61.18 461.161,60.854 461.027,60.318 C460.893,59.782 461.219,59.239 461.755,59.105 C462.719,58.864 463.73,58.606 464.989,58.279 C465.606,58.119 467.833,57.538 468.29,57.419 C480.262,54.307 487.013,53.056 494.667,53.075 z" fill="#000000"/>
    <path d="M443.86,68.051 C444.71,68.298 444.421,68.069 444.84,68.564 C445.106,69.048 444.93,69.656 444.446,69.922 C432.131,76.703 422.401,83.571 415.009,91.355 C405.874,100.975 400.964,111.442 400.964,123.046 C400.964,123.599 400.516,124.046 399.964,124.046 C399.411,124.046 398.964,123.599 398.964,123.046 C398.964,110.882 404.095,99.944 413.559,89.978 C421.117,82.019 431.002,75.041 443.481,68.17 L443.86,68.051 z" fill="#000000"/>
  </g>
</svg>
